<svg aria-hidden="true" style="position:absolute;width:0;height:0;overflow:hidden" xmlns="http://www.w3.org/2000/svg">
    <defs>
        <symbol id="icon-burger" viewBox="0 0 38 32">
            <path fill="#ff1616" style="fill:var(--color1, #ff1616)" d="M4 6.4h30.4a.8.8 0 1 1 0 1.6H4a.8.8 0 1 1 0-1.6zM4 14.445h30.4a.8.8 0 1 1 0 1.6H4a.8.8 0 1 1 0-1.6zM4 22.489h30.4a.8.8 0 1 1 0 1.6H4a.8.8 0 1 1 0-1.6z"/>
        </symbol>
        <symbol id="icon-docker" viewBox="0 0 32 32">
            <path fill="none" stroke="#f1f1f1" style="stroke:var(--color2, #f1f1f1)" stroke-width=".571" d="M29.835 11.497v.001a14.58 14.58 0 0 1-4.375 15.603 14.556 14.556 0 0 1-22.18-3.965 14.577 14.577 0 0 1 8.249-20.979l.003-.001c1.44-.484 2.949-.73 4.468-.728a14.559 14.559 0 0 1 13.835 10.068z"/>
            <path fill="#f1f1f1" style="fill:var(--color2, #f1f1f1)" d="M14.683 9.2v2.057h2.057V9.2h-2.057zm.343 1.714V9.543h1.371v1.371h-1.371zM14.683 11.486h2.057v2.057h-2.057v-2.057zm.343.342v1.371h1.371v-1.371h-1.371zM7.826 13.771h2.057v2.057H7.826v-2.057zm.343.343v1.371H9.54v-1.371H8.169zM10.112 13.771h2.057v2.057h-2.057v-2.057zm.342.343v1.371h1.371v-1.371h-1.371zM12.397 13.771v2.057h2.057v-2.057h-2.057zm.343 1.715v-1.371h1.371v1.371H12.74zM14.683 13.771h2.057v2.057h-2.057v-2.057zm.343.343v1.371h1.371v-1.371h-1.371zM16.969 13.771v2.057h2.057v-2.057h-2.057zm.343 1.715v-1.371h1.371v1.371h-1.371zM12.397 11.486v2.057h2.057v-2.057h-2.057zm.343 1.714v-1.371h1.371V13.2H12.74zM10.112 11.486h2.057v2.057h-2.057v-2.057zm.342.342v1.371h1.371v-1.371h-1.371z"/>
            <path fill="none" stroke="#f1f1f1" style="stroke:var(--color2, #f1f1f1)" stroke-width=".571" d="M25.575 14.386a3.423 3.423 0 0 1 2.6.238l.101.057-.048.096-.001.002c-.617 1.192-1.907 1.594-3.257 1.523l-.204-.011-.076.19c-2.05 5.108-6.51 7.531-11.964 7.531-2.771 0-5.282-1.021-6.708-3.403v-.035l-.25-.492a6.806 6.806 0 0 1-.531-3.422l.002-.015v-.093h15.68a5.725 5.725 0 0 0 1.774-.297h.001a4.79 4.79 0 0 0 .869-.395l.278-.162-.194-.257a2.76 2.76 0 0 1-.545-1.42l-.001-.011a3.02 3.02 0 0 1 .535-2.127l.066-.075.091.071.007.005a3.585 3.585 0 0 1 1.41 2.277l.055.32.311-.096z"/>
        </symbol>
        <symbol id="icon-facebook" viewBox="0 0 32 32">
            <path fill="none" stroke="#f1f1f1" style="stroke:var(--color2, #f1f1f1)" stroke-width=".571" d="M29.835 11.497v.001a14.58 14.58 0 0 1-4.375 15.603 14.556 14.556 0 0 1-22.18-3.965 14.577 14.577 0 0 1 8.249-20.979l.003-.001c1.44-.484 2.949-.73 4.468-.728a14.559 14.559 0 0 1 13.835 10.068z"/>
            <path fill="none" stroke="#f1f1f1" style="stroke:var(--color2, #f1f1f1)" stroke-width=".571" d="m18.792 9.867.011.001h.011c.075 0 .156.013.266.033l.009.002.07.012v1.566h-1.097a1.203 1.203 0 0 0-1.255.697 1.2 1.2 0 0 0-.105.504v1.956h2.29c-.031.309-.07.612-.109.912l-.024.181c-.033.245-.065.489-.093.727h-1.997v5.943h-1.886v-5.943h-1.968v-1.731h2.034v-1.916a3.527 3.527 0 0 1 .069-.845l.002-.01.001-.011a2.281 2.281 0 0 1 .936-1.564 2.794 2.794 0 0 1 1.589-.512h.01l.01-.001a7.828 7.828 0 0 1 1.225 0z"/>
        </symbol>
        <symbol id="icon-github" viewBox="0 0 32 32">
            <path fill="none" stroke="#f1f1f1" style="stroke:var(--color2, #f1f1f1)" stroke-width=".571" d="M29.835 11.497v.001a14.58 14.58 0 0 1-4.375 15.603 14.556 14.556 0 0 1-22.18-3.965 14.577 14.577 0 0 1 8.249-20.979l.003-.001c1.44-.484 2.949-.73 4.468-.728a14.559 14.559 0 0 1 13.835 10.068z"/>
            <path fill="none" stroke="#f1f1f1" style="stroke:var(--color2, #f1f1f1)" stroke-width=".571" d="M8.3 18.971c-.016-.013-.028-.03-.037-.048s-.013-.039-.013-.059c0-.021.004-.041.013-.059s.021-.035.037-.048a.579.579 0 0 1 .535-.156c.13.006.257.041.371.104.329.18.611.434.824.743.222.272.471.521.742.743a1.984 1.984 0 0 0 2.606.164c.053-.234.16-.453.312-.639.127-.151.28-.277.453-.371.141-.074.386-.178.742-.319a10.262 10.262 0 0 1-2.844-.609 4.887 4.887 0 0 1-1.723-1.144 4.505 4.505 0 0 1-1.01-2.481 6.467 6.467 0 0 1 .245-2.815c.208-.53.512-1.016.898-1.434a4.743 4.743 0 0 1 .163-3.031 5.48 5.48 0 0 1 3.074 1.166c1.81-.46 3.705-.478 5.524-.052a9.773 9.773 0 0 1 1.143-.661 4.647 4.647 0 0 1 1.938-.453c.154.447.251.911.29 1.382.059.496.034.998-.074 1.486a4.922 4.922 0 0 1 1.24 3.395 6.09 6.09 0 0 1-.579 2.815 4.537 4.537 0 0 1-2.072 1.857 7.465 7.465 0 0 1-2.658.587c.407.177.777.429 1.091.743.267.367.424.802.453 1.255v1.671l.052 1.619c.099.17.224.323.371.453.112.102.237.189.371.26a.194.194 0 0 1 .104.101.179.179 0 0 1 0 .144c-.035.104-.176.156-.423.156a1.763 1.763 0 0 1-1.433-.639 1.167 1.167 0 0 1-.163-.639V21.64a.744.744 0 0 0-.208-.609 1.023 1.023 0 0 0-.423-.238v3.38c-.044.403.028.81.208 1.174.131.151.223.332.267.527.037 0 0 .059-.082.082a1.036 1.036 0 0 1-.453-.082 1.287 1.287 0 0 1-.951-.743 2.732 2.732 0 0 1-.267-1.196v-3.306h-.691v3.298a2.883 2.883 0 0 1-.275 1.218 1.478 1.478 0 0 1-1.381.794c-.104 0-.156-.067-.156-.104a4.22 4.22 0 0 0 .319-.527c0-.074.074-.215.134-.431.054-.244.079-.493.074-.743v-3.343a.809.809 0 0 0-.393.238.825.825 0 0 0-.185.609v2.533c.004.224-.052.445-.163.639a1.683 1.683 0 0 1-1.433.639c-.242 0-.384-.052-.423-.156a.14.14 0 0 1 0-.186c.074-.072.156-.134.245-.186a1.82 1.82 0 0 0 .208-.163.916.916 0 0 0 .319-.423c.13-.357.159-.742.082-1.114a6.06 6.06 0 0 1 0-1.174 3.051 3.051 0 0 1-2.814-.475 5.199 5.199 0 0 1-.846-1.218 5.303 5.303 0 0 0-1.277-1.382z"/>
        </symbol>
        <symbol id="icon-linkedin" viewBox="0 0 32 32">
            <path fill="#f1f1f1" style="fill:var(--color2, #f1f1f1)" d="M10.751 7.508a1.354 1.354 0 1 1-2.707 0 1.354 1.354 0 0 1 2.707 0zm.615 0a1.969 1.969 0 1 1-3.938 0 1.969 1.969 0 0 1 3.938 0zm-3.981 3.289v11.972h4.21V10.797h-4.21zm6.378 11.972h4.21v-6.822c.004-.387.076-.681.19-.902.121-.232.278-.393.47-.502a1.52 1.52 0 0 1 .76-.179c.458 0 .749.137.951.359l.003.003c.205.221.344.565.34 1.116v6.928h4.21v-7.455c0-.909-.168-1.727-.529-2.433a3.949 3.949 0 0 0-1.53-1.65c-.663-.39-1.425-.574-2.263-.574-.894 0-1.695.207-2.372.653a3.91 3.91 0 0 0-.369.273v-.786h-4.07V22.77zm4.566-8.762a1.796 1.796 0 0 0-.713.755c-.168.326-.254.72-.259 1.182v6.21h-2.979V11.413h2.839v1.895h.126c.121-.319.284-.603.489-.854.197-.241.432-.45.706-.628.559-.368 1.238-.552 2.035-.552.746 0 1.396.163 1.951.489s.986.792 1.294 1.399c.308.601.462 1.319.462 2.154v6.839h-2.979v-6.308c.005-.657-.163-1.17-.503-1.538-.34-.373-.809-.559-1.406-.559-.401 0-.755.086-1.063.259zm-7.35 8.147H8V11.413h2.979v10.741z"/>
            <path fill="none" stroke="#f1f1f1" style="stroke:var(--color2, #f1f1f1)" stroke-width=".615" d="M31.692 16c0 8.667-7.026 15.692-15.692 15.692S.308 24.666.308 16C.308 7.333 7.334.308 16 .308S31.692 7.334 31.692 16z"/>
        </symbol>
        <symbol id="icon-youtube" viewBox="0 0 32 32">
            <path fill="none" stroke="#f1f1f1" style="stroke:var(--color2, #f1f1f1)" stroke-width=".571" d="M29.835 11.497v.001a14.58 14.58 0 0 1-4.375 15.603 14.556 14.556 0 0 1-22.18-3.965 14.577 14.577 0 0 1 8.249-20.979l.003-.001c1.44-.484 2.949-.73 4.468-.728a14.559 14.559 0 0 1 13.835 10.068z"/>
            <path fill="#f1f1f1" style="fill:var(--color2, #f1f1f1)" d="M24.838 13.66zm-3.846-3.848zm-9.972 0zM7.174 18.34zm13.818 3.848zm-6.43-3.766.264.507.011-.006-.275-.501zm.007-4.918.285-.495-.004-.002-.281.497zm4.002 2.303.35-.451-.031-.024-.034-.02-.285.495zm6.838-2.147a4.419 4.419 0 0 0-1.294-3.125l-.808.808c.614.614.959 1.448.959 2.317h1.143zm-1.293-3.125a4.416 4.416 0 0 0-3.124-1.295v1.143c.868 0 1.701.345 2.315.96l.808-.808zm-3.124-1.294H11.02v1.143h9.972V9.241zm-9.972 0a4.417 4.417 0 0 0-3.124 1.295l.808.808a3.275 3.275 0 0 1 2.315-.96V9.241zm-3.124 1.294a4.423 4.423 0 0 0-1.294 3.125h1.143c0-.869.345-1.703.959-2.317l-.808-.808zM6.603 13.66v4.68h1.143v-4.68H6.603zm0 4.68c0 1.172.465 2.296 1.294 3.125l.808-.808a3.277 3.277 0 0 1-.959-2.317H6.603zm1.293 3.125a4.415 4.415 0 0 0 3.124 1.294v-1.143a3.271 3.271 0 0 1-2.315-.96l-.808.808zm3.124 1.294h9.972v-1.143H11.02v1.143zm9.972 0a4.42 4.42 0 0 0 3.124-1.294l-.808-.808a3.275 3.275 0 0 1-2.315.96v1.143zm3.124-1.294a4.423 4.423 0 0 0 1.294-3.125h-1.143c0 .869-.345 1.703-.959 2.317l.808.808zm1.293-3.125v-4.68h-1.143v4.68h1.143zm-7.142-2.603-3.98 2.184.55 1.002 3.98-2.184-.55-1.002zm-3.97 2.178c.039-.021.1-.04.176-.035s.146.032.201.073c.11.081.133.186.133.238h-1.143a.84.84 0 0 0 .331.681.776.776 0 0 0 .831.056l-.529-1.013zm.51.276v-4.457h-1.143v4.457h1.143zm0-4.457c0 .05-.023.157-.136.238-.057.041-.129.067-.206.07s-.138-.019-.177-.041l.563-.995a.777.777 0 0 0-.845.037.843.843 0 0 0-.341.691h1.143zm-.523.265 4.002 2.303.57-.991-4.002-2.303-.57.991zm3.937 2.259a.311.311 0 0 1-.093-.119l1.043-.467a.83.83 0 0 0-.249-.317l-.7.903zm-.093-.118a.306.306 0 0 1-.026-.149l1.14.079a.835.835 0 0 0-.071-.397l-1.043.467zm-.027-.149c.004-.051.02-.1.047-.144l.969.606a.83.83 0 0 0 .124-.384l-1.14-.079zm.047-.144a.313.313 0 0 1 .109-.105l.57.99a.827.827 0 0 0 .29-.28l-.969-.606z"/>
        </symbol>
        <symbol id="icon-logo" viewBox="0 0 35 32">
            <path fill="#29aae1" style="fill:var(--color3, #29aae1)" d="m2.119 29.535 6.929-.049a.521.521 0 0 0 .451-.258l3.738-6.525c.093-.16.299-.188.485-.188h1.435a.521.521 0 0 0 .451-.258l.703-1.227c.067-.115-.003-.258-.136-.258h-3.471a.521.521 0 0 0-.451.258l-3.709 6.474c-.093.16-.328.239-.514.239H4.559a.172.172 0 0 1-.15-.259l7.469-13.038a2.399 2.399 0 0 0 2.683-2.39c0-1.33-1.07-2.408-2.389-2.408a2.399 2.399 0 0 0-2.389 2.408c0 .55.183 1.056.49 1.462L1.58 28.691c-.201.344.137.843.538.843zm8.967-17.443c0 .581.467 1.052 1.044 1.052s1.044-.471 1.044-1.052c0-.581-.467-1.052-1.044-1.052s-1.044.471-1.044 1.052zM13.842 7.399l3.422-6.071c.201-.351.798-.396.994-.048l8.693 15.173a2.36 2.36 0 0 1 1.501.303c1.143.665 1.534 2.137.875 3.289s-2.121 1.546-3.264.881a2.417 2.417 0 0 1-.711-3.537L17.883 4.351a.17.17 0 0 0-.297.002l-1.735 3.029c-.093.162-.143.407-.052.568l3.709 6.474c.09.161.089.36-.004.523l-1.735 3.029c-.067.117-.224.106-.29-.01l-.703-1.227a.533.533 0 0 1 .004-.523l.718-1.252c.093-.162.171-.357.081-.518l-3.738-6.525a.533.533 0 0 1 .004-.523zm13.929 10.476c-.499-.29-1.137-.118-1.426.385s-.117 1.146.382 1.437c.499.29 1.137.118 1.426-.385s.117-1.146-.382-1.437zM30.365 22.554l3.506 6.022c.201.351-.059.895-.455.891H16.031a2.388 2.388 0 0 1-1.011 1.159c-1.143.665-2.604.27-3.264-.881s-.268-2.624.874-3.289a2.38 2.38 0 0 1 3.396 1.147h14.939a.172.172 0 0 0 .147-.26l-1.735-3.029c-.093-.162-.278-.328-.462-.33h-7.419a.524.524 0 0 1-.447-.265l-1.735-3.029c-.067-.117.021-.249.153-.248h1.406a.524.524 0 0 1 .447.265l.718 1.253c.093.162.221.328.405.329h7.476a.524.524 0 0 1 .447.265zm-15.968 6.918c.499-.29.67-.934.382-1.437s-.926-.675-1.426-.385c-.499.29-.67.934-.382 1.437s.926.675 1.426.385z"/>
        </symbol>
<symbol id="icon-logo-2" viewBox="0 0 53 32">
<path fill="#4894d3" style="fill: var(--color1, #4894d3)" d="M3.031 29.708h-2.112v-11.79h2.111v11.79h0z"></path>
<path fill="#4894d3" style="fill: var(--color1, #4894d3)" d="M16.156 25.797l0.017 0.049c0.023 1.193-0.393 2.163-1.247 2.911s-2.011 1.122-3.471 1.122c-1.477 0-2.677-0.463-3.601-1.389s-1.386-2.109-1.386-3.551v-2.243c0-1.436 0.456-2.62 1.369-3.551s2.098-1.397 3.558-1.397c1.494 0 2.672 0.366 3.532 1.097s1.278 1.715 1.255 2.952l-0.017 0.049h-2.042c0-0.793-0.23-1.412-0.691-1.854s-1.14-0.664-2.037-0.664c-0.863 0-1.548 0.318-2.055 0.954s-0.76 1.434-0.76 2.394v2.257c0 0.971 0.259 1.775 0.778 2.411s1.218 0.954 2.098 0.954c0.875 0 1.538-0.218 1.99-0.654s0.678-1.052 0.678-1.848l2.032 0z"></path>
<path fill="#4894d3" style="fill: var(--color1, #4894d3)" d="M26.376 26.67c0-0.489-0.196-0.889-0.586-1.201s-1.082-0.591-2.072-0.839c-1.413-0.345-2.501-0.803-3.263-1.373s-1.142-1.316-1.142-2.239c0-0.95 0.421-1.733 1.264-2.348s1.93-0.923 3.263-0.923c1.39 0 2.507 0.35 3.349 1.049s1.25 1.537 1.221 2.514l-0.017 0.049h-2.024c0-0.604-0.22-1.094-0.66-1.469s-1.069-0.563-1.886-0.563c-0.77 0-1.363 0.156-1.777 0.469s-0.621 0.716-0.621 1.212c0 0.447 0.224 0.819 0.673 1.115s1.192 0.576 2.229 0.84c1.361 0.34 2.395 0.81 3.102 1.409s1.060 1.363 1.060 2.291c0 0.982-0.421 1.764-1.264 2.344s-1.95 0.871-3.323 0.871c-1.321 0-2.479-0.328-3.475-0.984s-1.48-1.55-1.451-2.684l0.017-0.049h2.033c0 0.718 0.266 1.254 0.8 1.607s1.225 0.53 2.076 0.53c0.782 0 1.39-0.146 1.824-0.439 0.433-0.292 0.651-0.689 0.651-1.188z"></path>
<path fill="#4894d3" style="fill: var(--color1, #4894d3)" d="M7.771 8.275h-4.986v3.724h5.785v1.579h-7.686v-11.789h7.632v1.579h-5.73v3.328h4.986v1.579z"></path>
<path fill="#4894d3" style="fill: var(--color1, #4894d3)" d="M13.973 10.494l0.203 0.818h0.047l0.196-0.802 2.724-8.721h2.027l-4.070 11.789h-1.808l-4.063-11.79h2.027l2.716 8.704z"></path>
<path fill="#4894d3" style="fill: var(--color1, #4894d3)" d="M25.3 10.826h-4.462l-0.908 2.753h-1.926l4.187-11.79h1.801l4.14 11.79h-1.933l-0.9-2.753zM21.387 9.182h3.373l-1.652-5.037h-0.047l-1.675 5.037z"></path>
<path fill="#4894d3" style="fill: var(--color1, #4894d3)" d="M37.803 2.733c-0.53 0.548-0.822 1.277-0.822 2.052s0.291 1.504 0.821 2.052c0.529 0.548 1.233 0.849 1.981 0.849 0.749 0 1.454-0.302 1.984-0.85s0.822-1.276 0.821-2.051c-0-1.6-1.259-2.902-2.805-2.902-0.748 0-1.452 0.302-1.981 0.849z"></path>
<path fill="#4894d3" style="fill: var(--color1, #4894d3)" d="M37.724 13.779c-0.551 0.57-0.854 1.327-0.854 2.132-0.001 0.806 0.302 1.562 0.853 2.132 0.55 0.569 1.282 0.883 2.059 0.882 0.779 0 1.511-0.314 2.062-0.884s0.854-1.326 0.854-2.131c-0-1.663-1.308-3.016-2.915-3.016-0.778 0-1.509 0.314-2.059 0.883z"></path>
<path fill="#4894d3" style="fill: var(--color1, #4894d3)" d="M37.603 24.816c-0.53 0.548-0.822 1.277-0.822 2.053s0.291 1.503 0.821 2.051c0.53 0.548 1.233 0.85 1.981 0.849 0.75 0 1.455-0.302 1.985-0.85s0.821-1.276 0.821-2.050c0-0.776-0.292-1.505-0.821-2.052s-1.234-0.85-1.984-0.85c-0.748 0-1.452 0.302-1.981 0.849z"></path>
<path fill="#4894d3" style="fill: var(--color1, #4894d3)" d="M48.348 13.823c-0.53 0.548-0.822 1.277-0.822 2.052 0 1.6 1.258 2.902 2.803 2.902 0.749 0 1.455-0.302 1.985-0.85s0.821-1.277 0.821-2.051c0-1.599-1.259-2.901-2.806-2.902-0.748 0.001-1.452 0.302-1.981 0.85z"></path>
<path fill="#4894d3" style="fill: var(--color1, #4894d3)" d="M34.406 7.436c0.157 0.001 0.323 0.018 0.514 0.054 0.053 0.011 0.107 0.024 0.161 0.038 0.11 0.028 0.218 0.063 0.321 0.102l0.019 0.007c0.052 0.021 0.102 0.040 0.151 0.063 0.104 0.050 0.208 0.109 0.321 0.182 0 0 0.076 0.043 0.088 0.050l0.468 0.417c0.033 0.036 0.062 0.075 0.092 0.114 0.021 0.027 0.042 0.054 0.059 0.075 0.020 0.026 0.041 0.051 0.063 0.077 0.021 0.025 0.043 0.050 0.061 0.077l0.017 0.027 0.022 0.024c0.735 0.807 1.793 1.278 2.901 1.295 1.113 0.016 2.186-0.424 2.946-1.211 0.032-0.034 0.064-0.068 0.096-0.103l0.033-0.043c0.006-0.008 0.012-0.015 0.019-0.022 0.016-0.019 0.033-0.039 0.054-0.065 0.059-0.079 0.119-0.161 0.181-0.231l0.471-0.424c0.013-0.008 0.026-0.015 0.040-0.024 0.020-0.011 0.041-0.022 0.065-0.037 0.119-0.076 0.218-0.132 0.314-0.177 0.054-0.025 0.109-0.046 0.166-0.069 0.102-0.039 0.213-0.075 0.318-0.103l0.056-0.014c0.035-0.009 0.069-0.018 0.107-0.025 0.197-0.037 0.358-0.055 0.508-0.056 1.547 0.001 2.806 1.304 2.806 2.902-0 0.775-0.292 1.502-0.821 2.051s-1.235 0.85-1.985 0.85c-0.153 0-0.314-0.018-0.513-0.056-0.043-0.007-0.084-0.019-0.125-0.030l-0.023-0.006c-0.123-0.033-0.23-0.067-0.331-0.106-0.056-0.022-0.109-0.042-0.164-0.068-0.092-0.043-0.189-0.098-0.317-0.178-0.020-0.013-0.088-0.052-0.101-0.060l-0.46-0.412c-0.034-0.038-0.064-0.078-0.095-0.118l-0.056-0.073c-0.020-0.025-0.040-0.049-0.060-0.072-0.003-0.004-0.007-0.008-0.010-0.011l-0.002-0.019-0.090-0.099c-0.735-0.806-1.794-1.277-2.902-1.293-1.112-0.017-2.185 0.424-2.945 1.209-0.033 0.034-0.065 0.069-0.097 0.104l-0.017 0.021-0.012 0.017c-0.006 0.008-0.014 0.015-0.021 0.024-0.018 0.020-0.035 0.040-0.055 0.066l-0.029 0.039c-0.052 0.069-0.101 0.137-0.152 0.194l-0.481 0.43c-0.011 0.007-0.101 0.058-0.101 0.058-0.104 0.069-0.208 0.127-0.308 0.175-0.053 0.025-0.108 0.046-0.165 0.068-0.106 0.041-0.213 0.075-0.33 0.105-0.052 0.015-0.149 0.027-0.198 0.037-0.201 0.038-0.517 0.054-0.517 0.054v-5.8c0 0 0.032-0.002 0.044-0.002z"></path>
<path fill="#4894d3" style="fill: var(--color1, #4894d3)" d="M34.844 18.567c0.051 0.010 0.143 0.024 0.198 0.038 0.115 0.030 0.242 0.064 0.346 0.104 0.058 0.022 0.125 0.043 0.177 0.068 0.098 0.047 0.207 0.106 0.326 0.183l0.052 0.029c0.015 0.008 0.032 0.017 0.045 0.025l0.465 0.415c0.032 0.035 0.061 0.073 0.090 0.111 0.021 0.027 0.042 0.054 0.058 0.075 0.021 0.027 0.042 0.052 0.064 0.078s0.043 0.050 0.060 0.077l0.018 0.026 0.022 0.024c0.736 0.806 1.794 1.278 2.903 1.294 1.112 0.016 2.185-0.425 2.945-1.21 0.033-0.034 0.065-0.068 0.096-0.104l0.018-0.021 0.013-0.017c0.006-0.009 0.014-0.017 0.021-0.024 0.017-0.020 0.035-0.040 0.053-0.064l0.023-0.031c0.054-0.073 0.107-0.142 0.16-0.203l0.47-0.423c0.013-0.008 0.027-0.015 0.040-0.023 0.021-0.013 0.043-0.025 0.066-0.040 0.11-0.071 0.212-0.128 0.314-0.177 0.052-0.025 0.106-0.046 0.165-0.068 0.099-0.038 0.208-0.073 0.324-0.103l0.023-0.006c0.043-0.011 0.085-0.023 0.137-0.032 0.187-0.037 0.352-0.055 0.506-0.055 1.546 0 2.805 1.301 2.806 2.901-0 0.775-0.292 1.504-0.822 2.052s-1.235 0.85-1.985 0.85c-0.151 0-0.312-0.017-0.505-0.054-0.048-0.010-0.094-0.022-0.139-0.033l-0.018-0.005c-0.117-0.031-0.227-0.066-0.331-0.107-0.057-0.022-0.111-0.042-0.163-0.067-0.093-0.044-0.193-0.101-0.325-0.185 0 0-0.071-0.040-0.084-0.048l-0.008-0.008-0.012-0.007-0.446-0.4c-0.036-0.039-0.068-0.082-0.1-0.124l-0.054-0.070c-0.019-0.024-0.037-0.046-0.056-0.068-0.023-0.027-0.047-0.053-0.066-0.082l-0.017-0.027-0.021-0.023c-0.735-0.806-1.793-1.278-2.902-1.295-1.113-0.017-2.186 0.424-2.945 1.21-0.033 0.034-0.065 0.068-0.097 0.104l-0.017 0.019-0.016 0.024c-0.006 0.008-0.012 0.014-0.018 0.021-0.017 0.019-0.034 0.039-0.055 0.065l-0.012 0.016c-0.057 0.078-0.112 0.151-0.168 0.214l-0.481 0.431c-0.011 0.007-0.023 0.013-0.035 0.020l-0.065 0.038c-0.103 0.067-0.207 0.126-0.306 0.174-0.055 0.026-0.111 0.048-0.167 0.070-0.109 0.042-0.216 0.076-0.325 0.104-0.054 0.014-0.191 0.028-0.241 0.038-0.149 0.028-0.48 0.042-0.48 0.048v-5.79c0 0.006 0.327 0.019 0.48 0.048z"></path>
<path fill="#4894d3" style="fill: var(--color1, #4894d3)" d="M34.515 2.391h-1.067v27.586h1.067v-27.586z"></path>
<path fill="#4894d3" style="fill: var(--color1, #4894d3)" d="M36.434 19.361c0.53 0.548 0.81 1.277 0.81 2.051s-0.275 1.504-0.805 2.053c-0.52 0.538-1.212 0.837-1.923 0.847v-5.798c0.711 0.010 1.399 0.309 1.918 0.847z"></path>
<path fill="#4894d3" style="fill: var(--color1, #4894d3)" d="M37.352 14.362c0.032-0.033 0.066-0.067 0.097-0.102l0.019-0.018 0.017-0.025 0.017-0.020c0.019-0.022 0.038-0.045 0.051-0.062l0.022-0.029c0.055-0.075 0.108-0.144 0.162-0.205l0.471-0.426c0.013-0.008 0.026-0.015 0.039-0.022 0.021-0.012 0.041-0.024 0.064-0.038 0.112-0.072 0.216-0.13 0.313-0.176 0.055-0.026 0.111-0.047 0.165-0.069 0.1-0.038 0.211-0.074 0.327-0.106 0.052-0.013 0.102-0.026 0.159-0.036 0.188-0.038 0.349-0.054 0.506-0.054 0.749-0 1.454 0.301 1.984 0.849s0.822 1.352 0.822 2.127c-0.001 0.775-0.293 1.479-0.822 2.129h-0c-0.53 0.325-1.234 0.774-1.982 0.773-0.157-0-0.32-0.056-0.501-0.090-0.056-0.012-0.114-0.044-0.162-0.056-0.116-0.032-0.225-0.078-0.335-0.12-0.054-0.020-0.104-0.045-0.16-0.072-0.1-0.047-0.205-0.108-0.318-0.181-0.019-0.012-0.083-0.049-0.093-0.056l-0.457-0.407-0.011-0.011c-0.031-0.031-0.056-0.066-0.083-0.101-0.023-0.031-0.048-0.063-0.062-0.079-0.022-0.029-0.045-0.058-0.069-0.086-0.020-0.024-0.040-0.047-0.057-0.074l-0.018-0.028-0.022 0.073c-0.735-0.806-1.878-1.196-2.988-1.196-0.002 0 0.068 0 0.068 0v-0.798c0.711-0.016 2.103-0.45 2.837-1.208z"></path>
<path fill="#4894d3" style="fill: var(--color1, #4894d3)" d="M36.406 8.283c0.53 0.548 0.824 1.277 0.824 2.053s-0.297 1.503-0.826 2.051c-0.506 0.523-1.177 0.819-1.888 0.844v-5.793c0.711 0.025 1.384 0.32 1.89 0.844z"></path>
<path fill="#4894d3" style="fill: var(--color1, #4894d3)" d="M29.627 5.987c1.116 0 2.020-0.93 2.020-2.078s-0.904-2.078-2.020-2.078c-1.116 0-2.020 0.93-2.020 2.078s0.904 2.078 2.020 2.078zM29.627 5.473c-0.841 0-1.52-0.701-1.52-1.564s0.679-1.564 1.52-1.564c0.838 0 1.518 0.701 1.518 1.564 0 0.865-0.679 1.564-1.518 1.564zM28.912 4.844h0.434v-0.647h0.374l0.313 0.647h0.477l-0.374-0.74c0.172-0.107 0.303-0.296 0.303-0.556 0-0.413-0.326-0.621-0.596-0.621h-0.932v1.917zM29.347 3.867v-0.61h0.361c0.109 0 0.263 0.070 0.263 0.291 0 0.213-0.149 0.319-0.27 0.319h-0.354z"></path>
</symbol>
<symbol id="icon-eva-image" viewBox="0 0 34 32">
<path d="M5.392 15.648c1.529 6.409 6.167 11.068 11.652 11.068s10.122-4.659 11.652-11.068h-23.303z"></path>
</symbol>
<symbol id="icon-ps-icon" viewBox="0 0 32 32">
<path fill="#fff" style="fill: var(--color1, #fff)" d="M28.812 28.999c0.352-0.357 0.356-0.935 0.008-1.29l-8.24-8.406 8.793-0.024c0.495-0.002 0.899-0.413 0.901-0.916s-0.397-0.91-0.893-0.908l-10.953 0.034c-0.238 0.001-0.466 0.098-0.635 0.27s-0.264 0.404-0.266 0.646l-0.034 11.382c-0.002 0.504 0.397 0.91 0.893 0.908s0.899-0.413 0.901-0.916l0.024-9.176 8.234 8.4c0.348 0.355 0.916 0.353 1.268-0.004z"></path>
<path fill="#fff" style="fill: var(--color1, #fff)" d="M3.026 28.999c-0.352-0.357-0.356-0.935-0.008-1.29l8.24-8.406-8.793-0.024c-0.495-0.002-0.899-0.413-0.901-0.916s0.397-0.91 0.893-0.908l10.953 0.034c0.238 0.001 0.466 0.098 0.635 0.27s0.264 0.404 0.266 0.646l0.034 11.382c0.002 0.504-0.397 0.91-0.893 0.908s-0.899-0.413-0.901-0.916l-0.024-9.176-8.234 8.4c-0.348 0.355-0.916 0.353-1.268-0.004z"></path>
<path fill="#ff1616" style="fill: var(--color2, #ff1616)" d="M18.299 13.891c-0.352-0.357-0.356-0.935-0.008-1.29l8.24-8.406-8.793-0.024c-0.495-0.002-0.899-0.413-0.901-0.916s0.397-0.91 0.893-0.908l10.953 0.034c0.238 0.001 0.466 0.098 0.635 0.27s0.264 0.404 0.266 0.646l0.034 11.382c0.002 0.504-0.397 0.91-0.893 0.908s-0.899-0.413-0.901-0.916l-0.024-9.176-8.234 8.4c-0.348 0.355-0.916 0.353-1.268-0.004z"></path>
<path fill="#fff" style="fill: var(--color1, #fff)" d="M3.026 2.774c-0.352 0.357-0.356 0.935-0.008 1.29l8.24 8.406-8.793 0.024c-0.495 0.002-0.899 0.413-0.901 0.916s0.397 0.91 0.893 0.908l10.953-0.034c0.238-0.001 0.466-0.098 0.635-0.27s0.264-0.404 0.266-0.646l0.034-11.382c0.002-0.504-0.397-0.91-0.893-0.908s-0.899 0.413-0.901 0.916l-0.024 9.176-8.234-8.4c-0.348-0.355-0.916-0.353-1.268 0.004z"></path>
<path fill="#fff" style="fill: var(--color1, #fff); stroke: var(--color1, #fff)" stroke="#fff" stroke-linejoin="miter" stroke-linecap="butt" stroke-miterlimit="4" stroke-width="1.2" d="M17.275 15.523c0 0.731-0.58 1.307-1.275 1.307s-1.275-0.576-1.275-1.307c0-0.731 0.58-1.307 1.275-1.307s1.275 0.576 1.275 1.307z"></path>
</symbol>
<symbol id="icon-evabox" viewBox="0 0 32 32">
<path fill="#fff" style="fill: var(--color1, #fff)" d="M16.071 1.517l-12.271 7.203v13.986c-0.195 0.079-0.333 0.271-0.333 0.495 0 0.295 0.239 0.533 0.533 0.533s0.533-0.239 0.533-0.533c0-0.224-0.138-0.415-0.333-0.495v-13.757l11.471-6.733v3.148l-9.032 5.161v13.509c-0.202 0.076-0.345 0.271-0.345 0.499 0 0.295 0.239 0.533 0.533 0.533s0.533-0.239 0.533-0.533c0-0.219-0.132-0.408-0.321-0.49v-13.287l8.632-4.933v3.152l-5.935 3.355v13.579c-0.189 0.082-0.322 0.27-0.322 0.49 0 0.295 0.239 0.533 0.533 0.533s0.533-0.239 0.533-0.533c0-0.228-0.143-0.423-0.345-0.499v-13.337l5.535-3.129v2.897l-3.097 1.806v13.911c-0.182 0.085-0.308 0.269-0.308 0.483 0 0.295 0.239 0.533 0.533 0.533s0.533-0.239 0.533-0.533c0-0.234-0.15-0.432-0.359-0.504v-13.66l2.697-1.573v16.842c-0.198 0.078-0.338 0.271-0.338 0.496 0 0.295 0.239 0.533 0.533 0.533s0.533-0.239 0.533-0.533c0-0.222-0.136-0.413-0.329-0.493v-28.123z"></path>
<path fill="#fff" style="fill: var(--color1, #fff)" d="M18.768 3.964v24.225h0.4v-24.231c0.191-0.081 0.326-0.271 0.326-0.491 0-0.295-0.239-0.533-0.533-0.533s-0.533 0.239-0.533 0.533c0 0.227 0.142 0.42 0.341 0.498z"></path>
<path fill="#fff" style="fill: var(--color1, #fff)" d="M21.607 5.292v21.349h0.4v-21.344c0.199-0.077 0.34-0.271 0.34-0.497 0-0.295-0.239-0.533-0.533-0.533s-0.533 0.239-0.533 0.533c0 0.221 0.135 0.411 0.326 0.492z"></path>
<path fill="#fff" style="fill: var(--color1, #fff)" d="M24.704 7.148v17.686h0.4v-17.662c0.211-0.071 0.363-0.271 0.363-0.506 0-0.295-0.239-0.533-0.533-0.533s-0.533 0.239-0.533 0.533c0 0.212 0.124 0.395 0.303 0.481z"></path>
<path fill="#fff" style="fill: var(--color1, #fff)" d="M27.801 9.295v13.733h0.4v-13.733c0.195-0.079 0.333-0.271 0.333-0.495 0-0.295-0.239-0.533-0.533-0.533s-0.533 0.239-0.533 0.533c0 0.224 0.138 0.415 0.333 0.495z"></path>
</symbol>
<symbol id="icon-bus" viewBox="0 0 46 32">
<path fill="#5076ff" style="fill: var(--color1, #5076ff)" d="M34.882 28.791c2.342 0 4.365-1.64 4.849-3.932l0.295-1.395h-26.219c-0.274 0-0.496 0.222-0.496 0.496v0.822c0 0.412-0.473 0.644-0.799 0.392l-2.079-1.606c-0.087-0.067-0.193-0.103-0.303-0.103h-7.714l-1.447 5.327 33.912-0z"></path>
<path fill="#5076ff" style="fill: var(--color1, #5076ff)" d="M13.806 18.508h27.265l0.544-2.576 0.515-2.38h-5.853c-0.11 0-0.216 0.036-0.303 0.103l-2.044 1.58c-0.326 0.252-0.799 0.020-0.799-0.392v-0.796c0-0.274-0.222-0.496-0.495-0.496h-27.55l-0.668 2.54-0.656 2.416h6.568c0.108 0 0.212-0.035 0.298-0.1l1.888-1.423c0.327-0.246 0.794-0.013 0.794 0.396v0.631c0 0.274 0.222 0.496 0.496 0.496z"></path>
<path fill="#5076ff" style="fill: var(--color1, #5076ff)" d="M6.389 8.597l0.397-1.508c0.573-2.177 2.541-3.695 4.793-3.695h32.752l-1.127 5.203h-7.057c-0.108 0-0.212-0.035-0.298-0.1l-1.923-1.449c-0.327-0.246-0.794-0.013-0.794 0.396v0.658c0 0.274-0.222 0.495-0.495 0.495h-26.247z"></path>
</symbol>
<symbol id="icon-close" viewBox="0 0 32 32">
<path fill="none" stroke="#fff" style="stroke: var(--color1, #fff)" stroke-linejoin="miter" stroke-linecap="round" stroke-miterlimit="4" stroke-width="1.28" d="M28.8 4.48l-25.6 22.833"></path>
<path fill="none" stroke="#fff" style="stroke: var(--color1, #fff)" stroke-linejoin="miter" stroke-linecap="round" stroke-miterlimit="4" stroke-width="1.28" d="M3.2 4.48l25.6 22.833"></path>
</symbol>
<symbol id="icon-arrow-on" viewBox="0 0 60 32">
<path   d="M6.633 1.052c-0.649-0.621-1.634-0.733-2.406-0.273l-1.967 1.171c-1.136 0.676-1.315 2.249-0.359 3.163l26.717 25.564c0.773 0.74 1.992 0.74 2.765 0l26.717-25.564c0.955-0.914 0.777-2.487-0.359-3.163l-1.967-1.171c-0.772-0.46-1.756-0.348-2.406 0.273l-23.367 22.358-23.367-22.358z"></path>
</symbol>
<symbol id="icon-arrow-off" viewBox="0 0 60 32">
<path fill="#29aae1" style="fill: var(--color1, #29aae1)" d="M6.633 30.948c-0.649 0.621-1.634 0.733-2.406 0.273l-1.967-1.171c-1.136-0.676-1.315-2.249-0.359-3.163l26.717-25.564c0.773-0.74 1.992-0.74 2.765 0l26.717 25.564c0.955 0.914 0.777 2.487-0.359 3.163l-1.967 1.171c-0.772 0.46-1.756 0.348-2.406-0.273l-23.367-22.358-23.367 22.358z"></path>
</symbol>
    </defs>
</svg>